<svg width="269" height="49" viewBox="0 0 269 49" fill="none" xmlns="http://www.w3.org/2000/svg">
<path d="M48.8255 23.5854C48.5952 22.868 48.1169 22.2966 47.519 21.9335C46.6686 21.4241 46.0176 20.6358 45.7607 19.6791L45.7518 19.6481C45.3178 18.036 45.3532 16.322 45.9157 14.7454C46.0929 14.2493 46.1416 13.7001 46.0264 13.1332C45.7474 11.7647 44.5117 10.7549 43.1122 10.7505C42.1999 10.7505 41.3982 11.1402 40.849 11.7603C40.198 12.4955 39.2901 12.9605 38.3113 13.0269L37.5097 13.0801C35.6097 13.2085 33.754 12.6328 32.1596 11.5876C31.3269 11.0428 30.2728 10.8346 29.2099 11.1181C27.5535 11.561 26.4197 13.151 26.5349 14.8605C26.5659 15.3078 26.6721 15.7241 26.8404 16.105C27.1859 16.8845 27.1416 17.7792 26.7164 18.5188L26.6633 18.6074C26.216 19.3824 25.3789 19.8386 24.4843 19.8342H24.4754C23.5808 19.8342 22.7437 19.3913 22.2964 18.6162L22.2743 18.5808C21.8402 17.8279 21.7561 16.9067 22.1104 16.1095C22.1945 15.919 22.2654 15.7197 22.3185 15.5116C22.4514 14.9757 22.4603 14.4398 22.3628 13.9349C21.9642 11.8931 22.3274 9.77614 23.2442 7.90714L23.3593 7.67241C23.7889 6.79549 24.5507 6.13558 25.4719 5.8167C25.4941 5.80785 25.5206 5.79899 25.5428 5.79013C26.9379 5.26752 28.4437 5.1258 29.8787 5.51111L30.3216 5.63069C31.2915 5.892 32.1507 6.49433 32.6512 7.36682C32.9878 7.947 33.5148 8.4209 34.1924 8.67777C35.7824 9.27567 37.5628 8.42975 38.0943 6.79106C38.5637 5.33838 37.833 3.72627 36.429 3.12394C35.5167 2.73419 34.5334 2.8272 33.7451 3.28338C32.8726 3.78827 31.823 3.88128 30.853 3.61997L30.4101 3.50039C28.9752 3.11508 27.7439 2.24259 26.805 1.0955C26.464 0.679185 26.0034 0.347018 25.4453 0.156575C24.1255 -0.295172 22.6286 0.25844 21.9155 1.45867C21.4372 2.2603 21.3796 3.18151 21.6586 3.97871C21.9775 4.88664 21.9067 5.88757 21.4859 6.7512L21.2689 7.18966C20.3698 9.02322 18.8684 10.4626 17.0659 11.4281C16.1225 11.933 15.405 12.8498 15.2013 14.0057C14.8957 15.7241 15.8966 17.4558 17.5398 18.0449C17.8188 18.1467 18.1022 18.2088 18.3857 18.2398C19.2272 18.3328 19.9801 18.7845 20.4053 19.5153L20.4584 19.6039C20.9102 20.3878 20.9102 21.3577 20.4584 22.146L20.4495 22.1638L20.4407 22.1815C19.9889 22.9698 19.1519 23.4526 18.244 23.4526H18.1377C17.2962 23.4526 16.5255 23.023 16.0251 22.3453C15.9808 22.2878 15.9409 22.2302 15.8922 22.177C15.4582 21.65 14.9046 21.278 14.3022 21.0698C12.2959 20.3612 10.613 18.9484 9.42602 17.1812L9.35073 17.0705C8.80598 16.26 8.61553 15.268 8.80155 14.3113C8.80598 14.2848 8.8104 14.2626 8.81483 14.236C9.085 12.6195 9.92206 11.158 11.0824 9.99758L11.1754 9.90458C11.8575 9.22253 12.792 8.87707 13.7575 8.86821C14.6831 8.85936 15.5955 8.4209 16.1801 7.60155C17.0659 6.34374 16.8356 4.56776 15.6575 3.58011C14.3377 2.47732 12.3801 2.70762 11.3526 4.06286C10.9318 4.61647 10.7325 5.26752 10.7414 5.90971C10.7547 6.87521 10.3428 7.79642 9.66075 8.47847L9.59875 8.54048C8.44724 9.69199 6.9857 10.5246 5.37358 10.7904C4.84211 10.8789 4.32393 11.1137 3.87661 11.5034C2.82696 12.4246 2.56566 13.9969 3.25657 15.2148C3.70832 16.012 4.4568 16.5169 5.27614 16.6808C6.23722 16.8757 7.08756 17.4293 7.63675 18.2442L7.75633 18.4213C8.95213 20.1973 9.48803 22.3099 9.46145 24.4535C9.44817 25.4013 9.80691 26.3624 10.5554 27.0975C11.7733 28.2978 13.7132 28.4749 15.1304 27.5139C15.4848 27.2747 15.7859 26.9824 16.0251 26.6591C16.5433 25.9593 17.3493 25.5386 18.2174 25.5386H18.3281C19.2095 25.5386 20.0067 26.0302 20.4451 26.8008C20.4495 26.8097 20.454 26.8185 20.4584 26.823C20.9102 27.6113 20.9412 28.5724 20.485 29.3607L20.4717 29.3829C20.0421 30.1313 19.2892 30.6584 18.43 30.747C18.3591 30.7558 18.2927 30.7647 18.2218 30.7735C17.5043 30.8887 16.871 31.2076 16.3705 31.6593C14.9489 32.9393 13.1419 33.7099 11.233 33.8383L10.5377 33.887C9.53674 33.9535 8.56682 33.6036 7.80062 32.9614C7.79176 32.9525 7.7829 32.9481 7.77847 32.9393C6.51624 31.8985 5.66589 30.4369 5.24071 28.8558L5.21857 28.7805C4.97055 27.8549 5.07242 26.854 5.56402 26.0346C6.0202 25.2728 6.13535 24.3118 5.78104 23.4038C5.23186 21.9999 3.67288 21.216 2.22021 21.6057C0.55937 22.053 -0.375128 23.7936 0.143053 25.4146C0.373356 26.132 0.851677 26.7034 1.44958 27.0665C2.29993 27.5759 2.95097 28.3642 3.20785 29.3209L3.21671 29.3519C3.65074 30.964 3.61531 32.678 3.05284 34.2546C2.87568 34.7507 2.82696 35.2999 2.94212 35.8668C3.22114 37.2353 4.4568 38.2451 5.85633 38.2495C6.76868 38.2495 7.57031 37.8598 8.1195 37.2397C8.77054 36.5045 9.67847 36.0395 10.6573 35.9731L11.4589 35.9199C13.3589 35.7915 15.2146 36.3672 16.809 37.4124C17.6416 37.9572 18.6957 38.1654 19.7586 37.8819C21.415 37.439 22.5488 35.849 22.4337 34.1395C22.4027 33.6922 22.2964 33.2759 22.1281 32.895C21.7826 32.1155 21.8269 31.2208 22.2521 30.4812L22.3053 30.3926C22.7526 29.6176 23.5896 29.1614 24.4843 29.1658H24.4931C25.3878 29.1658 26.2248 29.6087 26.6721 30.3838L26.6943 30.4192C27.1283 31.1721 27.2125 32.0933 26.8582 32.8905C26.774 33.081 26.7031 33.2803 26.65 33.4884C26.5171 34.0243 26.5083 34.5602 26.6057 35.0651C27.0043 37.1069 26.6411 39.2239 25.7244 41.0929L25.6092 41.3276C25.1796 42.2045 24.4178 42.8644 23.4966 43.1833C23.4745 43.1922 23.4479 43.201 23.4258 43.2099C22.0307 43.7325 20.5248 43.8742 19.0899 43.4889L18.647 43.3693C17.6771 43.108 16.8179 42.5057 16.3174 41.6332C15.9808 41.053 15.4538 40.5791 14.7761 40.3222C13.1862 39.7243 11.4057 40.5702 10.8743 42.2089C10.4048 43.6616 11.1356 45.2737 12.5395 45.8761C13.4519 46.2658 14.4351 46.1728 15.2234 45.7166C16.0959 45.2117 17.1456 45.1187 18.1155 45.38L18.5584 45.4996C19.9934 45.8849 21.2246 46.7574 22.1635 47.9045C22.5046 48.3208 22.9652 48.653 23.5232 48.8434C24.843 49.2952 26.34 48.7416 27.053 47.5413C27.5314 46.7397 27.5889 45.8185 27.3099 45.0213C26.991 44.1134 27.0619 43.1124 27.4826 42.2488L27.6997 41.8103C28.5987 39.9768 30.1001 38.5374 31.9027 37.5719C32.846 37.067 33.5635 36.1502 33.7672 34.9943C34.0728 33.2759 33.0719 31.5442 31.4288 30.9551C31.1498 30.8533 30.8663 30.7912 30.5829 30.7602C29.7414 30.6672 28.9885 30.2155 28.5633 29.4847L28.5101 29.3961C28.0584 28.6122 28.0584 27.6423 28.5101 26.854L28.519 26.8362L28.5279 26.8185C28.9796 26.0302 29.8167 25.5474 30.7246 25.5474H30.8309C31.6724 25.5474 32.443 25.977 32.9435 26.6547C32.9878 26.7122 33.0276 26.7698 33.0763 26.823C33.5104 27.35 34.064 27.722 34.6663 27.9302C36.6726 28.6388 38.3556 30.0516 39.5425 31.8188L39.6178 31.9295C40.1626 32.74 40.353 33.732 40.167 34.6887C40.1626 34.7152 40.1581 34.7374 40.1537 34.764C39.8835 36.3805 39.0465 37.842 37.8861 39.0024L37.7931 39.0954C37.1111 39.7775 36.1766 40.1229 35.2111 40.1318C34.2854 40.1406 33.3731 40.5791 32.7885 41.3985C31.9027 42.6563 32.133 44.4322 33.3111 45.4199C34.6309 46.5227 36.5885 46.2924 37.616 44.9371C38.0367 44.3835 38.236 43.7325 38.2271 43.0903C38.2139 42.1248 38.6257 41.2036 39.3078 40.5215L39.3698 40.4595C40.5213 39.308 41.9828 38.4754 43.595 38.2096C44.1264 38.1211 44.6446 37.8863 45.0919 37.4966C46.1416 36.5754 46.4029 35.0031 45.712 33.7852C45.2602 32.988 44.5117 32.4831 43.6924 32.3192C42.7313 32.1243 41.881 31.5707 41.3318 30.7558L41.2122 30.5787C40.0164 28.8027 39.4805 26.6901 39.5071 24.5465C39.5204 23.5987 39.1616 22.6376 38.4132 21.9025C37.1952 20.7022 35.2554 20.5251 33.8381 21.4861C33.4838 21.7253 33.1826 22.0176 32.9435 22.3409C32.4253 23.0407 31.6192 23.4614 30.7512 23.4614H30.6404C29.7591 23.4614 28.9619 22.9698 28.5234 22.1992C28.519 22.1903 28.5146 22.1815 28.5101 22.177C28.0584 21.3887 28.0274 20.4276 28.4836 19.6393L28.4969 19.6171C28.9265 18.8687 29.6794 18.3416 30.5386 18.253C30.6094 18.2442 30.6759 18.2353 30.7467 18.2265C31.4642 18.1113 32.0975 17.7924 32.598 17.3407C34.0197 16.0607 35.8267 15.2901 37.7355 15.1617L38.4309 15.113C39.4318 15.0465 40.4017 15.3964 41.1679 16.0386C41.1768 16.0475 41.1856 16.0519 41.1901 16.0607C42.4523 17.1015 43.3027 18.5631 43.7278 20.1442L43.75 20.2195C43.998 21.1451 43.8961 22.146 43.4045 22.9654C42.9483 23.7272 42.8332 24.6882 43.1875 25.5962C43.7367 27.0001 45.2957 27.784 46.7483 27.3943C48.4092 26.947 49.3437 25.2064 48.8255 23.5854Z" fill="#1D3166"/>
<path d="M70.3853 8.10547H76.6521L89.3321 41.8537H84.075L81.2316 34.0898H65.8058L62.9624 41.8537H57.7053L70.3853 8.10547ZM79.8365 30.2854L73.6671 13.3626H73.3792L67.2097 30.2854H79.8409H79.8365Z" fill="#1D3166"/>
<path d="M102.349 38.2402C106.304 38.2402 109.05 35.7822 109.05 31.2957V16.7822H113.917V41.8542H109.05V36.8407H108.904C108.47 38.723 106.06 42.337 100.467 42.337C95.5507 42.337 91.5957 39.4936 91.5957 32.4074V16.7867H96.4675V31.3001C96.4675 35.7822 98.3941 38.2447 102.349 38.2447V38.2402Z" fill="#1D3166"/>
<path d="M121.73 35.4901V20.64H117.633V16.7824H121.73V10.4668H126.597V16.7824H131.562V20.64H126.597V34.6707C126.597 37.1288 127.416 38.2404 130.118 38.2404C130.698 38.2404 131.132 38.2404 131.903 38.143V41.8057C130.986 42.0448 129.927 42.191 128.767 42.191C124.573 42.191 121.73 40.4061 121.73 35.4901Z" fill="#1D3166"/>
<path d="M134.409 29.3212C134.409 20.3527 140.388 16.3047 146.607 16.3047C152.825 16.3047 158.853 20.3527 158.853 29.3212C158.853 38.2897 152.873 42.3377 146.607 42.3377C140.34 42.3377 134.409 38.2897 134.409 29.3212ZM154.224 29.3212C154.224 23.1518 150.659 20.4014 146.607 20.4014C142.554 20.4014 139.038 23.1473 139.038 29.3212C139.038 35.4951 142.559 38.241 146.607 38.241C150.655 38.241 154.224 35.4907 154.224 29.3212Z" fill="#1D3166"/>
<path d="M163.043 8.10547H175.913C183.097 8.10547 186.326 11.4803 186.326 16.3476C186.326 19.9173 184.638 22.2779 181.649 23.3364C186.038 24.5411 188.545 27.4819 188.545 32.0614C188.545 37.6551 184.638 41.8492 176.201 41.8492H163.039V8.10547H163.043ZM181.17 16.9765C181.17 13.9383 179.146 12.3484 175.577 12.3484H168.057V21.7509H175.577C179.146 21.7509 181.17 20.1122 181.17 16.9765ZM183.243 31.7292C183.243 28.3544 180.976 25.9938 175.913 25.9938H168.057V37.5665H175.913C180.976 37.5665 183.243 35.1085 183.243 31.7336V31.7292Z" fill="#1D3166"/>
<path d="M192.738 16.7864H197.61V22.5706H197.756C198.478 19.6298 200.843 16.4941 205.423 16.4941C206.052 16.4941 206.725 16.5429 207.305 16.7333V20.83C206.676 20.7326 206.1 20.6839 205.471 20.6839C200.794 20.6839 197.614 23.7221 197.614 29.3158V41.8496H192.743V16.7776L192.738 16.7864Z" fill="#1D3166"/>
<path d="M208.602 35.2977C208.602 30.4747 212.123 28.4994 216.605 27.9679L222.824 27.246C225.135 26.9581 225.91 26.5241 225.91 25.7535V25.0803C225.91 21.0766 223.838 20.0181 220.317 20.0181C216.796 20.0181 214.674 21.081 214.674 24.2609V24.8411H209.997V23.8269C209.997 18.8134 213.518 16.3066 220.41 16.3066C227.301 16.3066 230.773 18.9595 230.773 25.0316V41.8569H226.194V37.8089H225.999C225.516 38.7744 223.156 42.3397 216.982 42.3397C212.305 42.3397 208.594 40.267 208.594 35.3022L208.602 35.2977ZM225.91 32.5474V29.8015C225.574 30.333 224.945 30.6696 222.487 30.9574L217.761 31.5863C214.626 31.9716 213.47 33.0789 213.47 35.0586C213.47 37.4192 215.157 38.5308 218.195 38.5308C223.497 38.5308 225.91 35.2535 225.91 32.5518V32.5474Z" fill="#1D3166"/>
<path d="M235.645 9.55516C235.645 7.96518 236.996 6.66309 238.537 6.66309C240.078 6.66309 241.429 7.96518 241.429 9.55516C241.429 11.1451 240.078 12.4472 238.537 12.4472C236.996 12.4472 235.645 11.1938 235.645 9.55516ZM236.128 16.7875H240.999V41.8595H236.128V16.7875Z" fill="#1D3166"/>
<path d="M257.967 20.4014C254.012 20.4014 251.266 22.8595 251.266 27.3459V41.8594H246.394V16.7874H251.266V21.8009H251.412C251.846 19.9187 254.255 16.3047 259.849 16.3047C264.765 16.3047 268.72 19.148 268.72 26.2343V41.855H263.852V27.3415C263.852 22.8595 261.926 20.397 257.971 20.397L257.967 20.4014Z" fill="#1D3166"/>
</svg>
