<svg width="95" height="69" viewBox="0 0 95 69" fill="none" xmlns="http://www.w3.org/2000/svg">
<path d="M10.0417 0H85.6042L94 8H1L10.0417 0Z" fill="url(#paint0_linear_295_3017)"/>
<path d="M1 8H94V41H1V8Z" fill="url(#paint1_linear_295_3017)"/>
<path d="M1 41H94L95 60H0L1 41Z" fill="url(#paint2_linear_295_3017)"/>
<rect y="60" width="95" height="9" fill="url(#paint3_linear_295_3017)"/>
<path d="M1 8H13.6543L26 41H13.3457L1 8Z" fill="url(#paint4_linear_295_3017)"/>
<path d="M23 8H35.6543L48 41H35.3457L23 8Z" fill="#E64C3A"/>
<path d="M46 8H58.6543L71 41H58.3457L46 8Z" fill="#E64C3A"/>
<path d="M69 8H81.6543L94 41H81.3457L69 8Z" fill="#E64C3A"/>
<defs>
<linearGradient id="paint0_linear_295_3017" x1="47.5" y1="8" x2="47.5" y2="0" gradientUnits="userSpaceOnUse">
<stop stop-color="white"/>
<stop offset="1" stop-color="#F4F4F4"/>
</linearGradient>
<linearGradient id="paint1_linear_295_3017" x1="5" y1="-5.26051e-06" x2="85" y2="50" gradientUnits="userSpaceOnUse">
<stop offset="0.24832" stop-color="#EBEBEB"/>
<stop offset="1" stop-color="#D0D0D0"/>
</linearGradient>
<linearGradient id="paint2_linear_295_3017" x1="1.97872e-07" y1="17" x2="107" y2="66.5" gradientUnits="userSpaceOnUse">
<stop offset="0.00147527" stop-color="white"/>
<stop offset="1" stop-color="#DFDFDF"/>
</linearGradient>
<linearGradient id="paint3_linear_295_3017" x1="-4.5" y1="55" x2="105.5" y2="70.5" gradientUnits="userSpaceOnUse">
<stop stop-color="#E4E4E4"/>
<stop offset="1" stop-color="#BEBEBE"/>
</linearGradient>
<linearGradient id="paint4_linear_295_3017" x1="13.5" y1="8" x2="13.5" y2="41" gradientUnits="userSpaceOnUse">
<stop stop-color="#E64C3A"/>
<stop offset="1" stop-color="#E64C3A"/>
</linearGradient>
</defs>
</svg>
