<svg width="74" height="62" viewBox="0 0 74 62" fill="none" xmlns="http://www.w3.org/2000/svg">
<g clip-path="url(#clip0_256_10851)">
<rect x="0.421509" y="0.421875" width="72.2092" height="61.1001" rx="2.5293" fill="#DEDEDE"/>
<rect x="0.420898" y="29.9297" width="166.091" height="32.0378" fill="url(#paint0_linear_256_10851)"/>
<path d="M0.916874 2.98424C0.68157 2.42834 1.08963 1.8125 1.69329 1.8125H12.5143C12.8529 1.8125 13.1587 2.01511 13.2907 2.32696L24.9204 29.8022C25.1557 30.3581 24.7477 30.9739 24.144 30.9739H13.323C12.9844 30.9739 12.6786 30.7713 12.5466 30.4595L0.916874 2.98424Z" fill="#E64C3A"/>
<path d="M24.5245 2.98424C24.2892 2.42834 24.6973 1.8125 25.301 1.8125H36.122C36.4606 1.8125 36.7664 2.01511 36.8984 2.32696L48.5281 29.8022C48.7634 30.3581 48.3553 30.9739 47.7517 30.9739H36.9307C36.592 30.9739 36.2863 30.7713 36.1543 30.4595L24.5245 2.98424Z" fill="#E64C3A"/>
<path d="M48.1301 2.98424C47.8948 2.42834 48.3029 1.8125 48.9065 1.8125H59.7275C60.0662 1.8125 60.372 2.01511 60.504 2.32696L72.1337 29.8022C72.369 30.3581 71.9609 30.9739 71.3573 30.9739H60.5363C60.1976 30.9739 59.8918 30.7713 59.7598 30.4595L48.1301 2.98424Z" fill="#E64C3A"/>
</g>
<rect x="0.421509" y="0.421875" width="72.2092" height="61.1001" rx="2.5293" stroke="#DEDEDE" stroke-width="0.843101"/>
<defs>
<linearGradient id="paint0_linear_256_10851" x1="83.4664" y1="29.9297" x2="83.4664" y2="61.9675" gradientUnits="userSpaceOnUse">
<stop stop-color="#E4E4E4"/>
<stop offset="0.668269" stop-color="#F0F0F0"/>
<stop offset="0.701923" stop-color="#DEDEDE"/>
<stop offset="1" stop-color="#DEDEDE"/>
</linearGradient>
<clipPath id="clip0_256_10851">
<rect x="0.421509" y="0.421875" width="72.2092" height="61.1001" rx="2.5293" fill="white"/>
</clipPath>
</defs>
</svg>
