<svg width="107" height="106" viewBox="0 0 107 106" fill="none" xmlns="http://www.w3.org/2000/svg">
<path d="M18.5518 22.2256H36.9717C38.2151 22.2256 39.2107 22.6356 40.0273 23.4521C40.8439 24.2687 41.2519 25.2624 41.249 26.501C41.246 27.7432 40.8362 28.7412 40.0234 29.5625C39.2168 30.3776 38.2259 30.7861 36.9766 30.7803H19.6816L19.4414 31.4658L13.876 47.3672L13.3994 48.7285H53.0059C54.2495 48.7285 55.2448 49.1393 56.0615 49.9561C56.8781 50.7726 57.2861 51.7654 57.2832 53.0039C57.2802 54.2451 56.8696 55.2429 56.0537 56.0645C55.242 56.8817 54.2515 57.289 53.0107 57.2832H9.57812V85.833H85.833V68.7754C85.833 67.532 86.2432 66.5392 87.0586 65.7266C87.8762 64.9118 88.872 64.501 90.1133 64.498C91.3504 64.4952 92.3453 64.904 93.166 65.7246C93.9867 66.5453 94.3935 67.5382 94.3877 68.7705V98.0615C94.3876 100.002 93.7206 101.619 92.3701 102.973C91.1735 104.172 89.9454 104.158 87.6494 104.154C85.3104 104.151 83.7391 104.157 82.5547 102.973C81.2087 101.627 80.5385 100.008 80.5322 98.0576V94.3877H14.8789V98.0615C14.8789 100.002 14.2117 101.619 12.8613 102.973C11.6683 104.168 10.3253 104.158 8.01562 104.154C5.68889 104.151 4.23218 104.16 3.04492 102.973C1.78303 101.711 1.11586 100.21 1.03223 98.4199L1.02344 98.0576V60.1621C1.02344 59.5926 1.06394 59.0221 1.14551 58.4512C1.22617 57.8866 1.34584 57.3726 1.50098 56.9072L1.5 56.9062L12.0967 26.8428L12.0996 26.835L12.1025 26.8262C12.5636 25.4432 13.3813 24.3413 14.5752 23.4951C15.7738 22.6457 17.0898 22.2257 18.5518 22.2256ZM23.8496 64.6309C25.8 64.6371 27.4177 65.3064 28.7637 66.6523C30.1095 67.9982 30.7771 69.6138 30.7803 71.5596C30.7834 73.5029 30.1171 75.1194 28.7646 76.4688C27.4109 77.8193 25.7932 78.4863 23.8525 78.4863H23.8457C21.9266 78.4986 20.3129 77.8352 18.9473 76.4697C17.5815 75.1039 16.9156 73.4874 16.9248 71.5635C16.9341 69.6316 17.6033 68.0118 18.9512 66.6484C20.2924 65.2918 21.9044 64.6247 23.8496 64.6309ZM71.5547 64.6309C73.505 64.6371 75.1228 65.3066 76.4688 66.6523C77.8146 67.9982 78.4831 69.6138 78.4863 71.5596C78.4894 73.5029 77.8222 75.1194 76.4697 76.4688C75.1161 77.8191 73.499 78.4863 71.5586 78.4863H71.5518C69.6323 78.4987 68.0181 77.8354 66.6523 76.4697C65.2866 75.1039 64.6216 73.4874 64.6309 71.5635C64.6402 69.6316 65.3085 68.0118 66.6562 66.6484C67.9974 65.2918 69.6096 64.6247 71.5547 64.6309ZM79.5088 1.02344C86.571 1.02344 92.5618 3.49977 97.5391 8.47363C102.361 13.2918 104.836 19.0639 104.982 25.8438L104.989 26.5029C104.986 33.5688 102.508 39.5596 97.5342 44.5332C92.5605 49.5069 86.571 51.9824 79.5088 51.9824C72.447 51.9823 66.458 49.5053 61.4844 44.5283C56.5104 39.5509 54.0328 33.5615 54.0293 26.5029L54.0361 25.8525C54.1847 19.1579 56.6385 13.402 61.4219 8.53613C66.35 3.523 72.3578 1.02353 79.5088 1.02344ZM79.5088 36.0811C78.5131 36.0812 77.6396 36.4669 76.9307 37.1758C76.2216 37.8848 75.8359 38.759 75.8359 39.7549C75.836 40.7506 76.2217 41.624 76.9307 42.333C77.6396 43.042 78.5131 43.4276 79.5088 43.4277C80.5047 43.4277 81.3788 43.0421 82.0879 42.333C82.7968 41.6241 83.1825 40.7506 83.1826 39.7549C83.1826 38.759 82.7969 37.8848 82.0879 37.1758C81.3789 36.4668 80.5047 36.0811 79.5088 36.0811ZM79.5088 9.57812C78.5131 9.57823 77.6396 9.96395 76.9307 10.6729C76.2216 11.3819 75.8359 12.2561 75.8359 13.252V29.1533C75.8359 30.1492 76.2216 31.0234 76.9307 31.7324C77.6396 32.4412 78.5132 32.827 79.5088 32.8271C80.5046 32.8271 81.3789 32.4414 82.0879 31.7324C82.7969 31.0234 83.1826 30.1492 83.1826 29.1533V13.252C83.1826 12.2561 82.7969 11.3819 82.0879 10.6729C81.3788 9.96381 80.5047 9.57812 79.5088 9.57812Z" fill="#B25CF3" stroke="white" stroke-width="2.04657"/>
</svg>
