<svg width="96" height="86" viewBox="0 0 96 86" fill="none" xmlns="http://www.w3.org/2000/svg">
<path d="M18.5303 1.02246H76.7695C79.5225 1.02246 82.2958 2.89627 83.2109 5.6709L83.2129 5.67773L83.2158 5.68555L94.2773 37.624V80.2578C94.2773 81.2666 93.7686 82.3592 92.9189 83.2178C92.0687 84.077 90.993 84.5859 90.0059 84.5859H84.7109C83.7241 84.5858 82.6489 84.0767 81.7988 83.2178C80.9492 82.3592 80.4395 81.2666 80.4395 80.2578V73.8848H14.8604V80.2578C14.8604 82.4464 13.1256 84.5859 10.5889 84.5859H5.29492C4.3079 84.5859 3.23206 84.0768 2.38184 83.2178C1.53222 82.3592 1.02246 81.2666 1.02246 80.2578V37.627L12.085 5.68555L12.0869 5.67773L12.0898 5.6709C13.0179 2.85735 15.289 1.02259 18.5303 1.02246ZM9.56641 65.2295H85.7344V36.4307H9.56641V65.2295ZM23.8252 43.8271C27.4857 43.8272 30.7441 47.1044 30.7441 50.8301C30.7441 54.5558 27.4857 57.8329 23.8252 57.833C20.1646 57.833 16.9062 54.5559 16.9062 50.8301C16.9063 47.1043 20.1646 43.8271 23.8252 43.8271ZM71.4756 43.8271C75.136 43.8274 78.3945 47.1045 78.3945 50.8301C78.3945 54.5557 75.136 57.8328 71.4756 57.833C67.815 57.833 64.5566 54.5559 64.5566 50.8301C64.5567 47.1043 67.815 43.8271 71.4756 43.8271ZM19.1475 10.3809L13.8535 26.4326L13.4102 27.7754H81.9346L81.4375 26.4043L75.6133 10.3525L75.3691 9.67871H19.3789L19.1475 10.3809Z" fill="#C7C7C7" stroke="white" stroke-width="2.04545"/>
</svg>
