<svg width="61" height="73" viewBox="0 0 61 73" fill="none" xmlns="http://www.w3.org/2000/svg">
<mask id="mask0_262_11025" style="mask-type:alpha" maskUnits="userSpaceOnUse" x="1" y="4" width="59" height="69">
<path d="M8.25386 51.9068C8.70387 50.7568 9.81264 50 11.0476 50H49.9524C51.1874 50 52.2961 50.7568 52.7461 51.9068L59.3983 68.9068C60.1682 70.8743 58.7174 73 56.6046 73H4.39542C2.28265 73 0.831795 70.8743 1.60169 68.9068L8.25386 51.9068Z" fill="black"/>
<path d="M29.516 5.85026C22.9169 25.3014 12.7144 55.3009 11.1853 59.5143C11.065 59.8459 11 60.1885 11.0801 60.532C11.7295 63.3155 16.2546 68 30.5 68C45.0422 68 49.4549 63.1183 49.9555 60.3605C49.9987 60.1228 49.9635 59.8817 49.8923 59.6507L33.3211 5.90629C32.7495 4.05251 30.1393 4.0132 29.516 5.85026Z" fill="black"/>
</mask>
<g mask="url(#mask0_262_11025)">
<path d="M8.25386 51.9068C8.70387 50.7568 9.81264 50 11.0476 50H49.9524C51.1874 50 52.2961 50.7568 52.7461 51.9068L59.3983 68.9068C60.1682 70.8743 58.7174 73 56.6046 73H4.39542C2.28265 73 0.831795 70.8743 1.60169 68.9068L8.25386 51.9068Z" fill="url(#paint0_linear_262_11025)"/>
<path d="M29.516 5.85026C22.9169 25.3014 12.7144 55.3009 11.1853 59.5143C11.065 59.8459 11 60.1885 11.0801 60.532C11.7295 63.3155 16.2546 68 30.5 68C45.0422 68 49.4549 63.1183 49.9555 60.3605C49.9987 60.1228 49.9635 59.8817 49.8923 59.6507L33.3211 5.90629C32.7495 4.05251 30.1393 4.0132 29.516 5.85026Z" fill="url(#paint1_linear_262_11025)"/>
<path d="M31 55C25 55 17.5 53.5 14.5 51.5L16.5 45.5C19.5 47.5 27 48.5 31 48.5C34 48.3333 41.8 47.9 45 45.5L47 52C44.3333 53.6667 37 55 31 55Z" fill="white" stroke="white"/>
<path d="M31.1766 38.7602C26.9385 38.7602 21.1191 37.8538 19 36.5L21.087 30.5C23.206 31.8538 28.3512 32.2842 31.1766 32.2842C33.2957 32.1714 38.6527 32.1246 40.913 30.5L43 37C41.1164 38.1282 35.4147 38.7602 31.1766 38.7602Z" fill="white" stroke="white" stroke-width="0.676923"/>
<path d="M31.2596 24.4159C29.077 24.4159 25.0913 23.7641 24 22.9327L26.0636 17C27.1549 17.8314 29.8046 18.0957 31.2596 18.0957C32.3509 18.0264 35.3359 17.9977 36.5 17L38.3374 22.9327C37.3674 23.6255 33.4422 24.4159 31.2596 24.4159Z" fill="white" stroke="white" stroke-width="0.669332"/>
</g>
<defs>
<linearGradient id="paint0_linear_262_11025" x1="30.5" y1="50" x2="30.5" y2="75.5" gradientUnits="userSpaceOnUse">
<stop stop-color="#FFA873"/>
<stop offset="0.0575923" stop-color="#FFB486"/>
<stop offset="1" stop-color="#FF7C2B"/>
</linearGradient>
<linearGradient id="paint1_linear_262_11025" x1="47.5" y1="46" x2="19" y2="27" gradientUnits="userSpaceOnUse">
<stop stop-color="#F46912"/>
<stop offset="0.976516" stop-color="#FF924D"/>
</linearGradient>
</defs>
</svg>
