<svg width="70" height="39" viewBox="0 0 70 39" fill="none" xmlns="http://www.w3.org/2000/svg">
<rect width="69.3026" height="38.1554" rx="6.84295" fill="#1D3166"/>
<path d="M41.7656 18.3762H46.8728C47.1124 18.3763 47.348 18.4382 47.5572 18.5561C47.7665 18.6739 47.9424 18.8437 48.0683 19.0494C48.1943 19.2551 48.266 19.4899 48.2768 19.7314C48.2876 19.973 48.237 20.2133 48.1299 20.4296L45.2698 26.2038C45.1613 26.4226 44.9987 26.6094 44.7976 26.7461C44.5965 26.8827 44.3638 26.9646 44.1221 26.9837C43.8804 27.0029 43.638 26.9586 43.4182 26.8553C43.1985 26.7519 43.009 26.593 42.868 26.394L39.8813 22.1793M21.0244 28.3097H26.3117C26.8358 28.3134 27.3505 28.1692 27.7977 27.8934C28.245 27.6176 28.6069 27.2211 28.8428 26.7488L30.8677 22.6334M21.0244 31.1479V25.4716M28.0553 14.119H28.0694M42.2662 14.1942C42.5995 14.3625 42.8529 14.6576 42.9707 15.0144C43.0886 15.3712 43.0613 15.7607 42.8947 16.0972L38.5271 24.911C38.4445 25.0778 38.3302 25.2264 38.1906 25.3485C38.0511 25.4707 37.889 25.5638 37.7138 25.6227C37.5386 25.6816 37.3535 25.7051 37.1693 25.6919C36.9851 25.6786 36.8052 25.6288 36.64 25.5454L23.2884 18.8019C22.3186 18.3089 21.5818 17.4484 21.2392 16.4085C20.8966 15.3686 20.9761 14.2342 21.4603 13.2533L23.4009 9.29409C23.6427 8.80766 23.9772 8.37408 24.3851 8.01811C24.793 7.66213 25.2664 7.39074 25.7783 7.21943C26.2902 7.04812 26.8305 6.98024 27.3684 7.01968C27.9062 7.05912 28.4311 7.20511 28.9131 7.44929L42.2662 14.1942Z" stroke="white" stroke-width="2.648" stroke-linecap="round" stroke-linejoin="round"/>
</svg>
