<svg width="70" height="39" viewBox="0 0 70 39" fill="none" xmlns="http://www.w3.org/2000/svg">
<rect x="0.38934" y="0.38934" width="68.5239" height="37.3767" rx="6.45361" stroke="black" stroke-width="0.778681"/>
<path d="M41.7656 18.3752H46.8728C47.1124 18.3753 47.348 18.4373 47.5572 18.5551C47.7665 18.6729 47.9424 18.8427 48.0683 19.0484C48.1943 19.2541 48.266 19.4889 48.2768 19.7304C48.2876 19.972 48.237 20.2123 48.1299 20.4286L45.2698 26.2029C45.1613 26.4217 44.9987 26.6084 44.7976 26.7451C44.5965 26.8817 44.3638 26.9636 44.1221 26.9827C43.8804 27.0019 43.638 26.9576 43.4182 26.8543C43.1985 26.751 43.009 26.5921 42.868 26.393L39.8813 22.1783M21.0244 28.3088H26.3117C26.8358 28.3124 27.3505 28.1682 27.7977 27.8924C28.245 27.6166 28.6069 27.2201 28.8428 26.7478L30.8677 22.6325M21.0244 31.1469V25.4706M28.0553 14.118H28.0694M42.2662 14.1932C42.5995 14.3616 42.8529 14.6566 42.9707 15.0134C43.0886 15.3702 43.0613 15.7597 42.8947 16.0962L38.5271 24.9101C38.4445 25.0768 38.3302 25.2255 38.1906 25.3476C38.0511 25.4697 37.889 25.5629 37.7138 25.6218C37.5386 25.6807 37.3535 25.7042 37.1693 25.6909C36.9851 25.6776 36.8052 25.6278 36.64 25.5444L23.2884 18.8009C22.3186 18.308 21.5818 17.4474 21.2392 16.4075C20.8966 15.3677 20.9761 14.2332 21.4603 13.2523L23.4009 9.29312C23.6427 8.80669 23.9772 8.3731 24.3851 8.01713C24.793 7.66116 25.2664 7.38976 25.7783 7.21845C26.2902 7.04714 26.8305 6.97927 27.3684 7.01871C27.9062 7.05815 28.4311 7.20413 28.9131 7.44831L42.2662 14.1932Z" stroke="black" stroke-width="2.648" stroke-linecap="round" stroke-linejoin="round"/>
</svg>
