<svg width="49" height="89" viewBox="0 0 49 89" fill="none" xmlns="http://www.w3.org/2000/svg">
<g clip-path="url(#clip0_170_3367)">
<rect x="49" y="2.14186e-06" width="89" height="49" rx="8.78788" transform="rotate(90 49 2.14186e-06)" fill="#F1F1F1"/>
<path d="M33.6363 43.5983H40.1951C40.5028 43.5985 40.8054 43.678 41.0741 43.8293C41.3428 43.9806 41.5687 44.1987 41.7304 44.4628C41.8922 44.727 41.9843 45.0285 41.9982 45.3387C42.012 45.6489 41.9471 45.9575 41.8095 46.2353L38.1365 53.6507C37.9972 53.9317 37.7883 54.1716 37.53 54.3471C37.2718 54.5226 36.973 54.6277 36.6626 54.6523C36.3522 54.6768 36.0409 54.62 35.7587 54.4873C35.4765 54.3546 35.2331 54.1506 35.0521 53.8949L31.2164 48.4824M7 56.3552H13.79C14.4631 56.3599 15.1241 56.1747 15.6985 55.8205C16.2728 55.4663 16.7376 54.9571 17.0405 54.3505L19.6409 49.0655M7 60V52.7104M16.0292 38.131H16.0473M34.2792 38.2276C34.7072 38.4439 35.0326 38.8227 35.184 39.281C35.3353 39.7392 35.3002 40.2393 35.0864 40.6715L29.4774 51.9905C29.3713 52.2046 29.2245 52.3955 29.0453 52.5523C28.866 52.7092 28.658 52.8288 28.4329 52.9045C28.2079 52.9801 27.9702 53.0103 27.7336 52.9932C27.497 52.9762 27.2661 52.9123 27.054 52.8051L9.90742 44.145C8.66199 43.5119 7.71576 42.4068 7.27579 41.0713C6.83583 39.7359 6.93795 38.279 7.55982 37.0194L10.0519 31.9348C10.3625 31.3102 10.792 30.7533 11.3159 30.2962C11.8397 29.839 12.4477 29.4905 13.1051 29.2705C13.7624 29.0505 14.4563 28.9633 15.147 29.014C15.8378 29.0646 16.5119 29.2521 17.1308 29.5657L34.2792 38.2276Z" stroke="black" stroke-width="3.40062" stroke-linecap="round" stroke-linejoin="round"/>
</g>
<defs>
<clipPath id="clip0_170_3367">
<rect x="49" y="2.14186e-06" width="89" height="49" rx="8.78788" transform="rotate(90 49 2.14186e-06)" fill="white"/>
</clipPath>
</defs>
</svg>
