<svg width="85" height="85" viewBox="0 0 85 85" fill="none" xmlns="http://www.w3.org/2000/svg">
<path d="M84.4019 40.7678C84.0038 39.5276 83.1769 38.5401 82.1433 37.9123C80.6734 37.0319 79.548 35.6693 79.1039 34.0157L79.0886 33.9621C78.3383 31.1756 78.3996 28.2129 79.3719 25.4876C79.6781 24.6302 79.7623 23.6809 79.5633 22.701C79.081 20.3355 76.9449 18.5901 74.5256 18.5824C72.9485 18.5824 71.5628 19.2561 70.6134 20.3278C69.488 21.5986 67.9185 22.4025 66.2266 22.5173L64.8408 22.6091C61.5564 22.8312 58.3486 21.8359 55.5924 20.0293C54.1531 19.0877 52.3309 18.7278 50.4935 19.2178C47.6302 19.9833 45.6702 22.7316 45.8693 25.6866C45.9229 26.4598 46.1066 27.1794 46.3976 27.8378C46.9947 29.1851 46.9182 30.7315 46.1832 32.01L46.0913 32.1631C45.3181 33.5028 43.8711 34.2913 42.3246 34.2837H42.3093C40.7628 34.2837 39.3158 33.5181 38.5425 32.1784L38.5042 32.1172C37.754 30.8158 37.6085 29.2234 38.221 27.8454C38.3664 27.5163 38.4889 27.1718 38.5808 26.812C38.8105 25.8857 38.8258 24.9594 38.6574 24.0866C37.9683 20.5575 38.5961 16.8982 40.1809 13.6676L40.38 13.2619C41.1226 11.7461 42.4394 10.6055 44.0319 10.0543C44.0701 10.039 44.1161 10.0236 44.1544 10.0083C46.566 9.10499 49.169 8.86002 51.6496 9.52604L52.4152 9.73274C54.0918 10.1844 55.5771 11.2255 56.4422 12.7337C57.0241 13.7365 57.9351 14.5556 59.1065 14.9997C61.855 16.0331 64.9327 14.571 65.8514 11.7385C66.6629 9.22748 65.3997 6.44091 62.9728 5.39977C61.3956 4.7261 59.696 4.88686 58.3332 5.67537C56.825 6.54808 55.0105 6.70885 53.3339 6.25718L52.5683 6.05048C50.0877 5.38446 47.9594 3.87634 46.3363 1.89359C45.7468 1.17398 44.9506 0.599826 43.9859 0.270643C41.7044 -0.510209 39.1167 0.446718 37.8841 2.52134C37.0573 3.90697 36.9577 5.49929 37.4401 6.87727C37.9913 8.44663 37.8688 10.1768 37.1415 11.6696L36.7663 12.4274C35.2122 15.5968 32.6168 18.0848 29.5008 19.7537C27.8701 20.6264 26.6298 22.2111 26.2776 24.2091C25.7494 27.1794 27.4796 30.1727 30.32 31.1909C30.8023 31.3669 31.2923 31.4741 31.7823 31.5277C33.2369 31.6885 34.5384 32.4693 35.2734 33.7325L35.3653 33.8856C36.1462 35.2406 36.1462 36.9171 35.3653 38.2798L35.35 38.3104L35.3347 38.341C34.5537 39.7037 33.1068 40.5381 31.5373 40.5381H31.3535C29.8989 40.5381 28.5668 39.7956 27.7016 38.6243C27.6251 38.5248 27.5562 38.4252 27.472 38.3334C26.7217 37.4224 25.7647 36.7793 24.7235 36.4195C21.2553 35.1946 18.346 32.7526 16.2942 29.6981L16.1641 29.5067C15.2224 28.1057 14.8932 26.3909 15.2147 24.7374C15.2224 24.6914 15.23 24.6531 15.2377 24.6072C15.7047 21.813 17.1517 19.2867 19.1576 17.281L19.3183 17.1202C20.4974 15.9413 22.1128 15.3442 23.7818 15.3288C25.3819 15.3135 26.959 14.5556 27.9696 13.1394C29.5008 10.9653 29.1027 7.89544 27.0662 6.18828C24.7847 4.28208 21.4008 4.68016 19.6246 7.02272C18.8973 7.97965 18.5527 9.10499 18.5681 10.215C18.591 11.8839 17.879 13.4762 16.7 14.6552L16.5928 14.7623C14.6023 16.7528 12.0758 18.192 9.289 18.6513C8.37029 18.8044 7.47454 19.2101 6.70128 19.8838C4.88681 21.4761 4.43511 24.1938 5.62944 26.2991C6.41035 27.677 7.70422 28.5497 9.12057 28.833C10.7819 29.1698 12.2519 30.1268 13.2012 31.5354L13.4079 31.8416C15.475 34.9114 16.4014 38.563 16.3555 42.2683C16.3325 43.9065 16.9526 45.5677 18.2465 46.8385C20.3519 48.9132 23.7052 49.2194 26.1551 47.5581C26.7676 47.1448 27.2882 46.6395 27.7016 46.0807C28.5974 44.8711 29.9908 44.1438 31.4914 44.1438H31.6828C33.2063 44.1438 34.5844 44.9936 35.3423 46.3256C35.35 46.3409 35.3576 46.3562 35.3653 46.3639C36.1462 47.7266 36.1998 49.3878 35.4112 50.7505L35.3883 50.7887C34.6456 52.0825 33.3441 52.9935 31.8588 53.1466C31.7363 53.1619 31.6215 53.1772 31.499 53.1925C30.2587 53.3916 29.1639 53.9428 28.2988 54.7236C25.8412 56.936 22.7176 58.2681 19.4179 58.4901L18.2159 58.5743C16.4856 58.6891 14.809 58.0843 13.4845 56.9743C13.4692 56.959 13.4539 56.9513 13.4462 56.936C11.2642 55.137 9.7943 52.6107 9.05933 49.8777L9.02104 49.7476C8.59231 48.1476 8.7684 46.4175 9.61821 45.0012C10.4068 43.6845 10.6058 42.0233 9.99335 40.4539C9.04401 38.0271 6.34911 36.6721 3.83794 37.3458C0.96695 38.119 -0.648462 41.1276 0.247288 43.9295C0.645399 45.1697 1.47225 46.1572 2.5058 46.7849C3.97575 47.6653 5.10118 49.028 5.54523 50.6816L5.56054 50.7351C6.31083 53.5217 6.24958 56.4844 5.27727 59.2097C4.97103 60.0671 4.88681 61.0164 5.08587 61.9963C5.5682 64.3618 7.70422 66.1072 10.1235 66.1149C11.7006 66.1149 13.0864 65.4412 14.0357 64.3694C15.1611 63.0986 16.7306 62.2948 18.4226 62.18L19.8083 62.0881C23.0927 61.8661 26.3006 62.8613 29.0568 64.668C30.4961 65.6096 32.3182 65.9694 34.1556 65.4795C37.019 64.7139 38.9789 61.9656 38.7799 59.0106C38.7263 58.2374 38.5425 57.5178 38.2516 56.8595C37.6544 55.5121 37.731 53.9657 38.466 52.6873L38.5578 52.5342C39.3311 51.1945 40.7781 50.406 42.3246 50.4136H42.3399C43.8864 50.4136 45.3334 51.1792 46.1066 52.5189L46.1449 52.5801C46.8952 53.8815 47.0407 55.4738 46.4282 56.8518C46.2827 57.181 46.1602 57.5255 46.0684 57.8853C45.8387 58.8116 45.8234 59.7379 45.9918 60.6106C46.6808 64.1398 46.053 67.7991 44.4683 71.0296L44.2692 71.4354C43.5266 72.9512 42.2097 74.0918 40.6173 74.643C40.579 74.6583 40.5331 74.6736 40.4948 74.6889C38.0832 75.5923 35.4801 75.8372 32.9996 75.1712L32.234 74.9645C30.5573 74.5129 29.0721 73.4717 28.2069 71.9636C27.6251 70.9608 26.714 70.1416 25.5427 69.6976C22.7942 68.6641 19.7165 70.1263 18.7977 72.9588C17.9862 75.4698 19.2494 78.2564 21.6764 79.2975C23.2535 79.9712 24.9531 79.8104 26.3159 79.0219C27.8241 78.1492 29.6386 77.9884 31.3153 78.4401L32.0809 78.6468C34.5614 79.3128 36.6898 80.8209 38.3128 82.8037C38.9023 83.5233 39.6986 84.0974 40.6632 84.4266C42.9447 85.2075 45.5324 84.2505 46.765 82.1759C47.5919 80.7903 47.6914 79.198 47.2091 77.82C46.6579 76.2506 46.7804 74.5205 47.5077 73.0277L47.8828 72.2698C49.437 69.1005 52.0324 66.6125 55.1483 64.9436C56.7791 64.0709 58.0193 62.4862 58.3715 60.4881C58.8998 57.5178 57.1695 54.5246 54.3292 53.5064C53.8468 53.3303 53.3568 53.2232 52.8669 53.1696C51.4122 53.0088 50.1107 52.2279 49.3757 50.9648L49.2839 50.8117C48.503 49.4567 48.503 47.7802 49.2839 46.4175L49.2992 46.3869L49.3145 46.3562C50.0954 44.9936 51.5424 44.1591 53.1119 44.1591H53.2956C54.7502 44.1591 56.0824 44.9017 56.9475 46.073C57.0241 46.1725 57.093 46.272 57.1772 46.3639C57.9275 47.2749 58.8845 47.9179 59.9257 48.2778C63.3938 49.5026 66.3031 51.9447 68.3549 54.9992L68.4851 55.1906C69.4268 56.5915 69.756 58.3063 69.4344 59.9599C69.4268 60.0059 69.4191 60.0441 69.4114 60.0901C68.9444 62.8843 67.4974 65.4106 65.4916 67.4163L65.3308 67.5771C64.1518 68.756 62.5364 69.3531 60.8674 69.3684C59.2673 69.3837 57.6901 70.1416 56.6795 71.5579C55.1483 73.732 55.5465 76.8018 57.583 78.509C59.8644 80.4152 63.2484 80.0171 65.0246 77.6746C65.7519 76.7176 66.0964 75.5923 66.0811 74.4822C66.0581 72.8134 66.7701 71.221 67.9492 70.0421L68.0563 69.9349C70.0469 67.9445 72.5734 66.5053 75.3601 66.046C76.2789 65.8929 77.1746 65.4871 77.9479 64.8134C79.7623 63.2211 80.214 60.5035 79.0197 58.3982C78.2388 57.0202 76.9449 56.1475 75.5286 55.8643C73.8672 55.5274 72.3973 54.5705 71.4479 53.1619L71.2412 52.8557C69.1741 49.7859 68.2477 46.1342 68.2937 42.429C68.3166 40.7908 67.6965 39.1295 66.4026 37.8587C64.2972 35.7841 60.9439 35.4779 58.494 37.1391C57.8815 37.5525 57.3609 38.0578 56.9475 38.6166C56.0518 39.8262 54.6584 40.5534 53.1578 40.5534H52.9664C51.4429 40.5534 50.0648 39.7037 49.3068 38.3716C49.2992 38.3563 49.2915 38.341 49.2839 38.3334C48.503 36.9707 48.4494 35.3095 49.2379 33.9468L49.2609 33.9085C50.0035 32.6148 51.305 31.7038 52.7903 31.5507C52.9128 31.5354 53.0276 31.52 53.1501 31.5047C54.3904 31.3057 55.4852 30.7545 56.3503 29.9737C58.8079 27.7612 61.9315 26.4292 65.2313 26.2072L66.4333 26.123C68.1635 26.0082 69.8402 26.6129 71.1647 27.723C71.18 27.7383 71.1953 27.7459 71.2029 27.7612C73.3849 29.5603 74.8549 32.0866 75.5898 34.8195L75.6281 34.9497C76.0568 36.5497 75.8808 38.2798 75.0309 39.696C74.2424 41.0128 74.0433 42.674 74.6558 44.2433C75.6051 46.6701 78.3 48.0251 80.8112 47.3514C83.6822 46.5783 85.2976 43.5697 84.4019 40.7678Z" fill="#1D3166"/>
</svg>
